<?xml version="1.0" standalone="no"?>
<!DOCTYPE svg PUBLIC "-//W3C//DTD SVG 20010904//EN"
 "http://www.w3.org/TR/2001/REC-SVG-20010904/DTD/svg10.dtd">
<svg version="1.0" xmlns="http://www.w3.org/2000/svg"
 width="923.000000pt" height="922.000000pt" viewBox="0 0 923.000000 922.000000"
 preserveAspectRatio="xMidYMid meet">

<g transform="translate(0.000000,922.000000) scale(0.100000,-0.100000)"
fill="#000000" stroke="none">
<path d="M6200 6583 c-47 -7 -89 -18 -94 -23 -6 -6 -17 -10 -25 -10 -29 0
-161 -92 -212 -148 -66 -72 -119 -181 -126 -260 -7 -71 12 -220 32 -259 8 -15
15 -32 15 -37 0 -4 21 -40 46 -78 32 -48 68 -86 118 -122 112 -84 197 -116
320 -121 45 -2 87 -4 94 -4 6 -1 12 -6 12 -12 0 -6 26 -54 58 -108 32 -53 77
-134 99 -181 88 -184 98 -226 67 -285 -21 -41 -33 -148 -24 -223 20 -161 105
-282 246 -349 69 -33 86 -37 178 -41 120 -5 191 14 279 72 66 44 104 90 149
177 32 63 33 67 33 194 0 128 -1 131 -35 200 -77 154 -235 255 -399 255 l-48
0 -18 48 c-21 55 -70 155 -114 232 -17 30 -37 65 -43 78 -6 12 -15 22 -20 22
-4 0 -8 5 -8 11 0 6 -13 30 -30 54 -16 24 -30 50 -30 58 0 8 18 48 39 89 22
42 44 101 50 133 23 124 9 261 -37 355 -36 75 -159 197 -235 233 -50 24 -213
68 -242 66 -5 -1 -48 -8 -95 -16z"/>
<path d="M2007 5204 c-223 -60 -351 -268 -318 -513 17 -127 74 -218 179 -289
83 -56 137 -75 231 -81 83 -6 85 -7 94 -36 6 -16 14 -33 19 -36 5 -3 8 -10 7
-15 -1 -5 3 -22 9 -37 7 -16 12 -33 12 -38 0 -5 5 -9 10 -9 6 0 10 -6 10 -13
0 -22 89 -191 111 -209 11 -9 20 -19 20 -22 -1 -15 14 -43 30 -59 18 -16 18
-15 14 38 -3 30 -3 55 -1 55 3 0 12 -14 20 -32 13 -25 14 -33 4 -39 -7 -4 -10
-11 -6 -14 3 -3 13 1 22 10 9 9 16 12 16 7 0 -5 -9 -17 -19 -26 -33 -30 -108
-189 -125 -264 -65 -284 99 -567 369 -638 71 -18 218 -18 287 0 150 40 293
146 356 263 43 81 68 210 54 277 -6 28 -14 68 -17 89 -17 107 -179 306 -295
359 -75 35 -170 58 -240 58 -58 0 -58 0 -93 48 -19 26 -45 67 -57 92 -33 66
-40 73 -58 58 -13 -12 -14 -10 -2 9 12 19 12 24 -3 41 -9 10 -17 24 -17 30 0
7 -11 33 -24 60 -31 60 -78 167 -89 203 -3 9 1 29 8 45 53 114 60 232 20 333
-13 35 -35 82 -49 105 -31 52 -110 128 -164 155 -96 49 -225 63 -325 35z m498
-704 c-3 -5 3 -18 15 -30 11 -11 20 -27 20 -35 0 -8 5 -15 10 -15 6 0 10 -16
10 -35 0 -19 5 -35 10 -35 6 0 10 -3 10 -8 0 -4 -20 -6 -45 -4 l-45 4 0 -40
c0 -35 -3 -41 -20 -39 -11 1 -20 7 -20 13 0 13 -25 26 -34 17 -3 -3 2 -12 12
-19 18 -14 5 -18 -22 -8 -9 3 -13 11 -9 18 3 6 -4 1 -16 -11 -11 -12 -21 -27
-21 -32 0 -6 -9 -15 -20 -21 -18 -10 -24 -7 -21 13 0 4 -5 7 -12 7 -8 0 -7 3
2 9 12 8 9 11 -11 16 -15 4 -31 4 -37 1 -13 -8 -42 4 -35 15 3 5 -2 9 -10 9
-9 0 -16 5 -16 10 0 6 6 10 13 10 6 0 23 3 37 6 24 6 25 6 5 -9 -20 -16 -19
-16 7 -17 28 0 50 21 30 28 -19 6 -14 19 11 25 12 2 31 8 42 13 17 7 18 6 5
-8 -8 -9 -19 -13 -24 -10 -5 3 -6 0 -2 -7 5 -8 15 -7 36 6 19 11 26 21 20 28
-5 6 4 18 26 33 34 22 48 16 19 -8 -24 -20 -12 -22 23 -4 18 8 30 20 27 25 -4
5 1 9 9 9 9 0 16 8 15 18 0 10 -3 12 -6 5 -5 -15 -33 -18 -33 -4 0 6 5 13 11
16 5 4 14 18 19 31 5 13 12 24 15 24 4 0 4 -4 0 -10z m75 -211 c0 -6 -4 -7
-10 -4 -5 3 -10 11 -10 16 0 6 5 7 10 4 6 -3 10 -11 10 -16z m25 -18 c-3 -6
-11 -11 -16 -11 -5 0 -4 6 3 14 14 16 24 13 13 -3z m-322 -110 c-3 -11 2 -21
11 -24 12 -5 16 0 17 16 1 17 2 18 6 4 4 -17 -12 -47 -26 -47 -14 0 -28 49
-18 59 15 15 16 14 10 -8z m413 -48 c-8 -8 -12 -3 -21 27 l-7 25 17 -23 c9
-13 14 -26 11 -29z m-38 12 c-3 -3 -9 2 -12 12 -6 14 -5 15 5 6 7 -7 10 -15 7
-18z m-348 -60 c0 -5 -5 -3 -10 5 -5 8 -10 20 -10 25 0 6 5 3 10 -5 5 -8 10
-19 10 -25z m60 -60 c0 -8 -2 -15 -4 -15 -2 0 -6 7 -10 15 -3 8 -1 15 4 15 6
0 10 -7 10 -15z m390 5 c0 -5 -2 -10 -4 -10 -3 0 -8 5 -11 10 -3 6 -1 10 4 10
6 0 11 -4 11 -10z m-379 -57 c-12 -20 -14 -14 -5 12 4 9 9 14 11 11 3 -2 0
-13 -6 -23z m237 12 c-15 -8 -34 -12 -44 -8 -16 6 -16 7 2 14 10 4 30 8 44 8
l25 0 -27 -14z m-93 -65 c-3 -5 -10 -10 -16 -10 -5 0 -9 5 -9 10 0 6 7 10 16
10 8 0 12 -4 9 -10z"/>
<path d="M2444 4355 c-10 -8 -14 -15 -7 -15 19 0 43 11 43 21 0 13 -14 11 -36
-6z"/>
<path d="M1034 4781 c-7 -7 -4 -150 6 -276 9 -113 25 -236 49 -386 14 -91 78
-337 101 -394 5 -11 16 -45 25 -75 9 -30 23 -68 30 -85 7 -16 23 -55 35 -85
96 -240 227 -488 356 -671 44 -64 170 -233 199 -268 37 -46 337 -361 344 -361
3 0 27 -20 52 -43 82 -76 221 -180 399 -298 372 -247 681 -384 1135 -502 33
-8 79 -20 101 -26 233 -61 702 -86 1044 -57 180 16 212 20 370 53 99 21 291
71 310 82 9 5 35 12 58 16 23 4 44 11 48 16 3 5 13 9 22 9 9 0 30 7 46 15 15
8 33 15 38 15 6 0 24 6 41 14 18 7 73 30 122 51 260 107 645 343 855 524 133
115 158 138 281 261 119 119 149 153 293 335 69 88 206 288 255 375 37 64 182
356 206 415 48 116 63 155 81 215 9 30 21 64 25 75 5 11 13 38 18 60 6 22 17
67 26 100 38 138 70 306 85 450 25 228 30 291 30 371 l0 85 -265 -3 -265 -3 0
-68 c0 -126 -37 -401 -70 -527 -5 -19 -19 -73 -30 -120 -43 -171 -128 -395
-225 -591 -109 -218 -209 -375 -335 -525 -19 -22 -55 -65 -79 -95 -116 -140
-414 -408 -591 -531 -187 -129 -388 -237 -600 -323 -25 -10 -59 -24 -77 -31
-17 -8 -37 -14 -45 -14 -8 0 -18 -3 -22 -7 -10 -11 -127 -47 -261 -82 -64 -17
-131 -30 -305 -62 -36 -6 -171 -13 -300 -16 -221 -5 -280 -1 -488 27 -77 10
-290 55 -332 70 -14 5 -59 18 -100 30 -41 12 -84 26 -95 31 -11 5 -62 24 -112
43 -107 41 -360 165 -448 220 -343 217 -584 422 -799 681 -167 202 -252 328
-378 565 -107 200 -214 491 -263 710 -9 41 -20 93 -26 115 -15 67 -30 193 -42
350 l-12 150 -258 0 c-142 0 -260 -2 -263 -4z"/>
<path d="M3040 4698 c0 -139 35 -331 88 -478 83 -235 295 -521 498 -672 79
-59 234 -150 304 -178 30 -12 64 -26 75 -31 36 -16 139 -46 215 -63 41 -9 98
-22 125 -28 79 -18 384 -14 485 7 365 74 615 202 843 432 175 177 241 270 317
448 70 166 127 449 118 593 l-3 52 -263 3 -262 2 0 -55 c-1 -87 -34 -250 -72
-350 -84 -220 -287 -428 -516 -532 -175 -78 -195 -83 -417 -83 -193 0 -253 9
-350 50 -16 8 -50 21 -75 31 -25 10 -47 20 -50 23 -3 4 -21 15 -41 25 -63 33
-186 139 -248 213 -144 174 -223 368 -238 583 l-6 95 -263 3 -264 2 0 -92z"/>
<path d="M6155 3974 c-92 -25 -176 -75 -250 -150 -91 -92 -116 -140 -155 -296
-13 -51 -31 -69 -176 -176 -120 -89 -264 -173 -514 -303 -44 -23 -175 -83
-261 -120 -55 -24 -71 -26 -105 -19 -95 22 -266 3 -356 -39 -64 -31 -168 -128
-201 -188 -50 -93 -73 -275 -47 -373 19 -71 74 -160 137 -221 68 -66 109 -92
189 -120 80 -28 236 -30 314 -4 249 83 397 337 334 577 -17 67 -14 88 14 88
11 0 50 11 88 25 38 14 95 35 126 45 116 40 370 179 565 309 34 22 64 41 67
41 3 0 29 -15 58 -33 207 -131 506 -111 670 45 42 39 118 146 118 165 0 4 7
21 15 36 21 41 37 180 30 256 -10 88 -34 156 -89 245 -62 98 -149 169 -256
209 -56 21 -239 21 -315 1z"/>
</g>
</svg>
